<svg width="12" height="3" viewBox="0 0 12 3" fill="none" xmlns="http://www.w3.org/2000/svg">
<path d="M0.770508 1.0498C0.770508 0.758138 0.870768 0.514323 1.07129 0.318359C1.27637 0.122396 1.54753 0.0244141 1.88477 0.0244141C2.22201 0.0244141 2.49089 0.122396 2.69141 0.318359C2.89648 0.514323 2.99902 0.758138 2.99902 1.0498C2.99902 1.34147 2.89648 1.58529 2.69141 1.78125C2.49089 1.97721 2.22201 2.0752 1.88477 2.0752C1.54753 2.0752 1.27637 1.97721 1.07129 1.78125C0.870768 1.58529 0.770508 1.34147 0.770508 1.0498ZM4.83105 1.0498C4.83105 0.758138 4.93132 0.514323 5.13184 0.318359C5.33691 0.122396 5.60807 0.0244141 5.94531 0.0244141C6.28255 0.0244141 6.55143 0.122396 6.75195 0.318359C6.95703 0.514323 7.05957 0.758138 7.05957 1.0498C7.05957 1.34147 6.95703 1.58529 6.75195 1.78125C6.55143 1.97721 6.28255 2.0752 5.94531 2.0752C5.60807 2.0752 5.33691 1.97721 5.13184 1.78125C4.93132 1.58529 4.83105 1.34147 4.83105 1.0498ZM8.8916 1.0498C8.8916 0.758138 8.99186 0.514323 9.19238 0.318359C9.39746 0.122396 9.66862 0.0244141 10.0059 0.0244141C10.3431 0.0244141 10.612 0.122396 10.8125 0.318359C11.0176 0.514323 11.1201 0.758138 11.1201 1.0498C11.1201 1.34147 11.0176 1.58529 10.8125 1.78125C10.612 1.97721 10.3431 2.0752 10.0059 2.0752C9.66862 2.0752 9.39746 1.97721 9.19238 1.78125C8.99186 1.58529 8.8916 1.34147 8.8916 1.0498Z" fill="#041526" fill-opacity="0.3"/>
</svg>
